<svg width="256" height="256" viewBox="0 0 256 256" fill="none" xmlns="http://www.w3.org/2000/svg">
<defs>
<filter id="congratsdark_sf" x="-30%" y="-30%" width="160%" height="160%">
<feDropShadow dx="0" dy="2" stdDeviation="3" flood-color="#000000" flood-opacity="0.45"/>
<feDropShadow dx="0" dy="12" stdDeviation="9" flood-color="#000000" flood-opacity="0.6"/>
</filter>
<linearGradient id="congratsdark_glass" x1="0" y1="0" x2="0" y2="1">
<stop offset="0" stop-color="#ffffff" stop-opacity="0.05"/><stop offset="0.42" stop-color="#ffffff" stop-opacity="0"/>
</linearGradient>
<radialGradient id="congratsdark_rose" cx="50%" cy="40%" r="55%">
<stop offset="0" stop-color="#341219"/><stop offset="1" stop-color="#341219" stop-opacity="0"/>
</radialGradient></defs>
<rect x="58" y="34" width="140" height="120" fill="url(#congratsdark_rose)"/>
<circle cx="210" cy="50" r="4" fill="#ff5d7d"/><circle cx="222" cy="42" r="2.5" fill="#7a2436"/>
<circle cx="44" cy="176" r="5" fill="none" stroke="#2a2e37" stroke-width="2"/>
<circle cx="214" cy="192" r="9" fill="none" stroke="#2a2e37" stroke-width="2"/>
<g filter="url(#congratsdark_sf)"><rect x="60" y="70" width="136" height="100" rx="20" fill="#181b22" stroke="#2a2e37"/></g><rect x="60" y="70" width="136" height="50" rx="20" fill="url(#congratsdark_glass)"/>
<circle cx="128" cy="108" r="20" fill="#341219"/><path d="M120 108l6 6 12-12" stroke="#ff5d7d" stroke-width="3.5" fill="none" stroke-linecap="round" stroke-linejoin="round"/>
<rect x="92" y="140" width="72" height="6" rx="3" fill="#f3f5f8" fill-opacity="0.8"/><rect x="104" y="152" width="48" height="5" rx="2.5" fill="#5b626e"/>
<rect x="74" y="78" width="5" height="5" rx="1.5" transform="rotate(25 74 78)" fill="#ff5d7d"/>
<rect x="190" y="86" width="5" height="5" rx="1.5" transform="rotate(25 190 86)" fill="#fbbf24"/>
<rect x="84" y="150" width="5" height="5" rx="1.5" transform="rotate(25 84 150)" fill="#4ade80"/>
<rect x="182" y="148" width="5" height="5" rx="1.5" transform="rotate(25 182 148)" fill="#ff5d7d"/>
<rect x="96" y="60" width="5" height="5" rx="1.5" transform="rotate(25 96 60)" fill="#7a2436"/>
<rect x="170" y="64" width="5" height="5" rx="1.5" transform="rotate(25 170 64)" fill="#fbbf24"/>
<rect x="84" y="210" width="88" height="6" rx="3" fill="#23262e"/>
</svg>
