<svg width="256" height="256" viewBox="0 0 256 256" fill="none" xmlns="http://www.w3.org/2000/svg">
<defs>
<filter id="congrats_sf" x="-30%" y="-30%" width="160%" height="160%">
<feDropShadow dx="0" dy="2" stdDeviation="3" flood-color="#101828" flood-opacity="0.05"/>
<feDropShadow dx="0" dy="12" stdDeviation="9" flood-color="#101828" flood-opacity="0.10"/>
</filter>
<linearGradient id="congrats_glass" x1="0" y1="0" x2="0" y2="1">
<stop offset="0" stop-color="#ffffff" stop-opacity="0.7"/><stop offset="0.42" stop-color="#ffffff" stop-opacity="0"/>
</linearGradient>
<radialGradient id="congrats_rose" cx="50%" cy="40%" r="55%">
<stop offset="0" stop-color="#ffeef0"/><stop offset="1" stop-color="#ffeef0" stop-opacity="0"/>
</radialGradient></defs>
<rect x="58" y="34" width="140" height="120" fill="url(#congrats_rose)"/>
<circle cx="210" cy="50" r="4" fill="#e11d48"/><circle cx="222" cy="42" r="2.5" fill="#fda4b4"/>
<circle cx="44" cy="176" r="5" fill="none" stroke="#e2e6ec" stroke-width="2"/>
<circle cx="214" cy="192" r="9" fill="none" stroke="#e2e6ec" stroke-width="2"/>
<g filter="url(#congrats_sf)"><rect x="60" y="70" width="136" height="100" rx="20" fill="#ffffff" stroke="#e2e6ec"/></g><rect x="60" y="70" width="136" height="50" rx="20" fill="url(#congrats_glass)"/>
<circle cx="128" cy="108" r="20" fill="#ffeef0"/><path d="M120 108l6 6 12-12" stroke="#e11d48" stroke-width="3.5" fill="none" stroke-linecap="round" stroke-linejoin="round"/>
<rect x="92" y="140" width="72" height="6" rx="3" fill="#0e1116" fill-opacity="0.8"/><rect x="104" y="152" width="48" height="5" rx="2.5" fill="#aeb6c2"/>
<rect x="74" y="78" width="5" height="5" rx="1.5" transform="rotate(25 74 78)" fill="#e11d48"/>
<rect x="190" y="86" width="5" height="5" rx="1.5" transform="rotate(25 190 86)" fill="#f59e0b"/>
<rect x="84" y="150" width="5" height="5" rx="1.5" transform="rotate(25 84 150)" fill="#16a34a"/>
<rect x="182" y="148" width="5" height="5" rx="1.5" transform="rotate(25 182 148)" fill="#e11d48"/>
<rect x="96" y="60" width="5" height="5" rx="1.5" transform="rotate(25 96 60)" fill="#fda4b4"/>
<rect x="170" y="64" width="5" height="5" rx="1.5" transform="rotate(25 170 64)" fill="#f59e0b"/>
<rect x="84" y="210" width="88" height="6" rx="3" fill="#e6eaf0"/>
</svg>
