<svg width="256" height="256" viewBox="0 0 256 256" fill="none" xmlns="http://www.w3.org/2000/svg">
<defs>
<filter id="error_sf" x="-30%" y="-30%" width="160%" height="160%">
<feDropShadow dx="0" dy="2" stdDeviation="3" flood-color="#101828" flood-opacity="0.05"/>
<feDropShadow dx="0" dy="12" stdDeviation="9" flood-color="#101828" flood-opacity="0.10"/>
</filter>
<linearGradient id="error_glass" x1="0" y1="0" x2="0" y2="1">
<stop offset="0" stop-color="#ffffff" stop-opacity="0.7"/><stop offset="0.42" stop-color="#ffffff" stop-opacity="0"/>
</linearGradient>
<radialGradient id="error_rose" cx="50%" cy="40%" r="55%">
<stop offset="0" stop-color="#ffeef0"/><stop offset="1" stop-color="#ffeef0" stop-opacity="0"/>
</radialGradient></defs>
<rect x="58" y="34" width="140" height="120" fill="url(#error_rose)"/>
<circle cx="210" cy="50" r="4" fill="#f59e0b"/><circle cx="222" cy="42" r="2.5" fill="#fda4b4"/>
<circle cx="44" cy="176" r="5" fill="none" stroke="#e2e6ec" stroke-width="2"/>
<circle cx="214" cy="192" r="9" fill="none" stroke="#e2e6ec" stroke-width="2"/>
<g filter="url(#error_sf)"><rect x="56" y="66" width="144" height="108" rx="20" fill="#ffffff" stroke="#e2e6ec"/></g><rect x="56" y="66" width="144" height="50" rx="20" fill="url(#error_glass)"/>
<rect x="69" y="79" width="26" height="26" rx="8" fill="#fef3e2"/><path d="M82 84l8 14H74l8-14z" fill="none" stroke="#f59e0b" stroke-width="2.4" stroke-linejoin="round"/><rect x="81" y="89" width="2" height="4" rx="1" fill="#f59e0b"/><circle cx="82" cy="95.5" r="1.2" fill="#f59e0b"/>
<rect x="104" y="84" width="58" height="6" rx="3" fill="#0e1116" fill-opacity="0.82"/><rect x="104" y="95" width="38" height="5" rx="2.5" fill="#aeb6c2"/>
<rect x="70" y="120" width="116" height="1" rx="0.5" fill="#eef1f5"/>
<g opacity="0.85"><rect x="70" y="132" width="92" height="6" rx="3" fill="#f0f2f6"/></g>
<g opacity="0.6"><rect x="70" y="146" width="70" height="6" rx="3" fill="#f0f2f6"/></g>
<rect x="74" y="210" width="80" height="6" rx="3" fill="#e6eaf0"/><rect x="162" y="210" width="20" height="6" rx="3" fill="#eef1f5"/>
</svg>
