<svg width="256" height="256" viewBox="0 0 256 256" fill="none" xmlns="http://www.w3.org/2000/svg">
<defs>
<filter id="notfounddark_sf" x="-30%" y="-30%" width="160%" height="160%">
<feDropShadow dx="0" dy="2" stdDeviation="3" flood-color="#000000" flood-opacity="0.45"/>
<feDropShadow dx="0" dy="12" stdDeviation="9" flood-color="#000000" flood-opacity="0.6"/>
</filter>
<linearGradient id="notfounddark_glass" x1="0" y1="0" x2="0" y2="1">
<stop offset="0" stop-color="#ffffff" stop-opacity="0.05"/><stop offset="0.42" stop-color="#ffffff" stop-opacity="0"/>
</linearGradient>
<radialGradient id="notfounddark_rose" cx="50%" cy="40%" r="55%">
<stop offset="0" stop-color="#341219"/><stop offset="1" stop-color="#341219" stop-opacity="0"/>
</radialGradient></defs>
<rect x="58" y="34" width="140" height="120" fill="url(#notfounddark_rose)"/>
<circle cx="210" cy="50" r="4" fill="#ff5d7d"/><circle cx="222" cy="42" r="2.5" fill="#7a2436"/>
<circle cx="44" cy="176" r="5" fill="none" stroke="#2a2e37" stroke-width="2"/>
<circle cx="214" cy="192" r="9" fill="none" stroke="#2a2e37" stroke-width="2"/>
<g filter="url(#notfounddark_sf)"><rect x="56" y="66" width="144" height="108" rx="20" fill="#181b22" stroke="#2a2e37"/></g><rect x="56" y="66" width="144" height="50" rx="20" fill="url(#notfounddark_glass)"/>
<rect x="69" y="79" width="26" height="26" rx="8" fill="#341219"/><text x="82" y="97" font-family="monospace" font-size="15" font-weight="700" fill="#ff5d7d" text-anchor="middle">404</text>
<rect x="104" y="84" width="58" height="6" rx="3" fill="#f3f5f8" fill-opacity="0.82"/><rect x="104" y="95" width="38" height="5" rx="2.5" fill="#5b626e"/>
<rect x="70" y="120" width="116" height="1" rx="0.5" fill="#23262e"/>
<g opacity="0.85"><rect x="70" y="132" width="92" height="6" rx="3" fill="#22252d"/></g>
<g opacity="0.6"><rect x="70" y="146" width="70" height="6" rx="3" fill="#22252d"/></g>
<rect x="74" y="210" width="80" height="6" rx="3" fill="#23262e"/><rect x="162" y="210" width="20" height="6" rx="3" fill="#23262e"/>
</svg>
