<svg width="257" height="256" viewBox="0 0 257 256" fill="none" xmlns="http://www.w3.org/2000/svg">
<defs>
<filter id="organizationempty_sf" x="-30%" y="-30%" width="160%" height="160%">
<feDropShadow dx="0" dy="2" stdDeviation="3" flood-color="#101828" flood-opacity="0.05"/>
<feDropShadow dx="0" dy="12" stdDeviation="9" flood-color="#101828" flood-opacity="0.10"/>
</filter>
<linearGradient id="organizationempty_glass" x1="0" y1="0" x2="0" y2="1">
<stop offset="0" stop-color="#ffffff" stop-opacity="0.7"/>
<stop offset="0.42" stop-color="#ffffff" stop-opacity="0"/>
</linearGradient>
<linearGradient id="organizationempty_surf" x1="0" y1="0" x2="0" y2="1">
<stop offset="0" stop-color="#ffffff"/><stop offset="1" stop-color="#f6f8fa"/>
</linearGradient>
<radialGradient id="organizationempty_rose" cx="50%" cy="42%" r="55%">
<stop offset="0" stop-color="#ffeef0"/><stop offset="1" stop-color="#ffeef0" stop-opacity="0"/>
</radialGradient>
</defs>
<rect x="58" y="36" width="140" height="120" fill="url(#organizationempty_rose)"/>
<circle cx="214" cy="52" r="4" fill="#e11d48"/>
<circle cx="226" cy="44" r="2.5" fill="#fda4b4"/>
<g filter="url(#organizationempty_sf)"><rect x="44" y="74" width="120" height="92" rx="16" fill="url(#organizationempty_surf)" stroke="#e2e6ec"/></g>
<rect x="44" y="74" width="120" height="46" rx="16" fill="url(#organizationempty_glass)"/>
<rect x="58" y="96" width="70" height="6" rx="3" fill="#eef1f5"/>
<rect x="58" y="110" width="92" height="6" rx="3" fill="#eef1f5"/>
<rect x="58" y="124" width="54" height="6" rx="3" fill="#eef1f5"/>
<rect x="58" y="138" width="80" height="6" rx="3" fill="#eef1f5"/>
<g filter="url(#organizationempty_sf)"><rect x="80" y="92" width="133" height="100" rx="18" fill="#ffffff" stroke="#e2e6ec"/></g>
<rect x="80" y="92" width="133" height="50" rx="18" fill="url(#organizationempty_glass)"/>
<rect x="94" y="106" width="26" height="26" rx="8" fill="#ffeef0"/>
<rect x="101" y="113" width="6.5" height="12" rx="1.5" fill="#e11d48"/><rect x="109" y="116" width="6.5" height="9" rx="1.5" fill="#c01038"/>
<rect x="128" y="110" width="52" height="6" rx="3" fill="#0e1116" fill-opacity="0.82"/>
<rect x="128" y="121" width="34" height="5" rx="2.5" fill="#aeb6c2"/>
<rect x="94" y="146" width="105" height="1" rx="0.5" fill="#eef1f5"/>
<g opacity="0.9"><rect x="94" y="156" width="78" height="6" rx="3" fill="#f0f2f6"/><rect x="180" y="156" width="19" height="6" rx="3" fill="#f0f2f6"/></g><g opacity="0.6"><rect x="94" y="172" width="62" height="6" rx="3" fill="#f0f2f6"/><rect x="180" y="172" width="19" height="6" rx="3" fill="#f0f2f6"/></g>
<rect x="78" y="214" width="80" height="6" rx="3" fill="#e6eaf0"/>
<rect x="166" y="214" width="20" height="6" rx="3" fill="#eef1f5"/>
<circle cx="214" cy="190" r="9" fill="none" stroke="#e2e6ec" stroke-width="2"/>
<circle cx="40" cy="170" r="5" fill="none" stroke="#e2e6ec" stroke-width="2"/>
</svg>
