<svg width="256" height="256" viewBox="0 0 256 256" fill="none" xmlns="http://www.w3.org/2000/svg">
<defs>
<filter id="signinexperiencewe_sf" x="-30%" y="-30%" width="160%" height="160%">
<feDropShadow dx="0" dy="2" stdDeviation="3" flood-color="#101828" flood-opacity="0.05"/>
<feDropShadow dx="0" dy="12" stdDeviation="9" flood-color="#101828" flood-opacity="0.10"/>
</filter>
<linearGradient id="signinexperiencewe_glass" x1="0" y1="0" x2="0" y2="1">
<stop offset="0" stop-color="#ffffff" stop-opacity="0.7"/><stop offset="0.42" stop-color="#ffffff" stop-opacity="0"/>
</linearGradient>
<radialGradient id="signinexperiencewe_rose" cx="50%" cy="40%" r="55%">
<stop offset="0" stop-color="#ffeef0"/><stop offset="1" stop-color="#ffeef0" stop-opacity="0"/>
</radialGradient></defs>
<rect x="58" y="34" width="140" height="120" fill="url(#signinexperiencewe_rose)"/>
<circle cx="210" cy="50" r="4" fill="#e11d48"/><circle cx="222" cy="42" r="2.5" fill="#fda4b4"/>
<circle cx="44" cy="176" r="5" fill="none" stroke="#e2e6ec" stroke-width="2"/>
<circle cx="214" cy="192" r="9" fill="none" stroke="#e2e6ec" stroke-width="2"/>
<g filter="url(#signinexperiencewe_sf)"><rect x="92" y="56" width="72" height="132" rx="16" fill="#ffffff" stroke="#e2e6ec"/></g>
<rect x="92" y="56" width="72" height="40" rx="16" fill="url(#signinexperiencewe_glass)"/>
<rect x="116" y="64" width="24" height="4" rx="2" fill="#eef1f5"/>
<circle cx="128" cy="104" r="16" fill="#ffeef0"/><rect x="122" y="102" width="12" height="10" rx="2" fill="#e11d48"/><path d="M124 102v-3a4 4 0 0 1 8 0v3" stroke="#e11d48" stroke-width="2" fill="none"/>
<rect x="104" y="134" width="48" height="7" rx="3.5" fill="#f0f2f6"/><rect x="104" y="146" width="48" height="7" rx="3.5" fill="#f0f2f6"/>
<rect x="104" y="162" width="48" height="11" rx="5.5" fill="#e11d48"/>
</svg>
