<svg width="256" height="256" viewBox="0 0 256 256" fill="none" xmlns="http://www.w3.org/2000/svg">
<defs>
<filter id="signinexperiencewe_sf" x="-30%" y="-30%" width="160%" height="160%">
<feDropShadow dx="0" dy="2" stdDeviation="3" flood-color="#000000" flood-opacity="0.45"/>
<feDropShadow dx="0" dy="12" stdDeviation="9" flood-color="#000000" flood-opacity="0.6"/>
</filter>
<linearGradient id="signinexperiencewe_glass" x1="0" y1="0" x2="0" y2="1">
<stop offset="0" stop-color="#ffffff" stop-opacity="0.05"/><stop offset="0.42" stop-color="#ffffff" stop-opacity="0"/>
</linearGradient>
<radialGradient id="signinexperiencewe_rose" cx="50%" cy="40%" r="55%">
<stop offset="0" stop-color="#341219"/><stop offset="1" stop-color="#341219" stop-opacity="0"/>
</radialGradient></defs>
<rect x="58" y="34" width="140" height="120" fill="url(#signinexperiencewe_rose)"/>
<circle cx="210" cy="50" r="4" fill="#ff5d7d"/><circle cx="222" cy="42" r="2.5" fill="#7a2436"/>
<circle cx="44" cy="176" r="5" fill="none" stroke="#2a2e37" stroke-width="2"/>
<circle cx="214" cy="192" r="9" fill="none" stroke="#2a2e37" stroke-width="2"/>
<g filter="url(#signinexperiencewe_sf)"><rect x="92" y="56" width="72" height="132" rx="16" fill="#181b22" stroke="#2a2e37"/></g>
<rect x="92" y="56" width="72" height="40" rx="16" fill="url(#signinexperiencewe_glass)"/>
<rect x="116" y="64" width="24" height="4" rx="2" fill="#23262e"/>
<circle cx="128" cy="104" r="16" fill="#341219"/><rect x="122" y="102" width="12" height="10" rx="2" fill="#ff5d7d"/><path d="M124 102v-3a4 4 0 0 1 8 0v3" stroke="#ff5d7d" stroke-width="2" fill="none"/>
<rect x="104" y="134" width="48" height="7" rx="3.5" fill="#22252d"/><rect x="104" y="146" width="48" height="7" rx="3.5" fill="#22252d"/>
<rect x="104" y="162" width="48" height="11" rx="5.5" fill="#ff5d7d"/>
</svg>
