<svg width="256" height="256" viewBox="0 0 256 256" fill="none" xmlns="http://www.w3.org/2000/svg">
<defs>
<filter id="tenantlandingpaged_sf" x="-30%" y="-30%" width="160%" height="160%">
<feDropShadow dx="0" dy="2" stdDeviation="3" flood-color="#000000" flood-opacity="0.45"/>
<feDropShadow dx="0" dy="12" stdDeviation="9" flood-color="#000000" flood-opacity="0.6"/>
</filter>
<linearGradient id="tenantlandingpaged_glass" x1="0" y1="0" x2="0" y2="1">
<stop offset="0" stop-color="#ffffff" stop-opacity="0.05"/><stop offset="0.42" stop-color="#ffffff" stop-opacity="0"/>
</linearGradient>
<radialGradient id="tenantlandingpaged_rose" cx="50%" cy="40%" r="55%">
<stop offset="0" stop-color="#341219"/><stop offset="1" stop-color="#341219" stop-opacity="0"/>
</radialGradient></defs>
<rect x="58" y="34" width="140" height="120" fill="url(#tenantlandingpaged_rose)"/>
<circle cx="210" cy="50" r="4" fill="#ff5d7d"/><circle cx="222" cy="42" r="2.5" fill="#7a2436"/>
<circle cx="44" cy="176" r="5" fill="none" stroke="#2a2e37" stroke-width="2"/>
<circle cx="214" cy="192" r="9" fill="none" stroke="#2a2e37" stroke-width="2"/>
<g filter="url(#tenantlandingpaged_sf)"><rect x="44" y="64" width="150" height="104" rx="14" fill="#181b22" stroke="#2a2e37"/></g>
<path d="M44 78c0-7.7 6.3-14 14-14h122c7.7 0 14 6.3 14 14v4H44v-4z" fill="#14171d"/>
<circle cx="58" cy="73" r="2.5" fill="#5b626e"/><circle cx="68" cy="73" r="2.5" fill="#23262e"/><circle cx="78" cy="73" r="2.5" fill="#23262e"/>
<rect x="60" y="98" width="60" height="6" rx="3" fill="#22252d"/><rect x="60" y="110" width="80" height="6" rx="3" fill="#23262e"/><rect x="60" y="122" width="44" height="6" rx="3" fill="#23262e"/>
<g filter="url(#tenantlandingpaged_sf)"><rect x="138" y="118" width="68" height="64" rx="14" fill="#181b22" stroke="#2a2e37"/></g>
<circle cx="172" cy="142" r="13" fill="#341219"/><rect x="166" y="140" width="12" height="10" rx="2" fill="#ff5d7d"/><path d="M168 140v-3a4 4 0 0 1 8 0v3" stroke="#ff5d7d" stroke-width="2" fill="none"/>
<rect x="152" y="164" width="40" height="5" rx="2.5" fill="#22252d"/>
</svg>
