<svg width="256" height="256" viewBox="0 0 256 256" fill="none" xmlns="http://www.w3.org/2000/svg">
<defs>
<filter id="tenantlandingpage_sf" x="-30%" y="-30%" width="160%" height="160%">
<feDropShadow dx="0" dy="2" stdDeviation="3" flood-color="#101828" flood-opacity="0.05"/>
<feDropShadow dx="0" dy="12" stdDeviation="9" flood-color="#101828" flood-opacity="0.10"/>
</filter>
<linearGradient id="tenantlandingpage_glass" x1="0" y1="0" x2="0" y2="1">
<stop offset="0" stop-color="#ffffff" stop-opacity="0.7"/><stop offset="0.42" stop-color="#ffffff" stop-opacity="0"/>
</linearGradient>
<radialGradient id="tenantlandingpage_rose" cx="50%" cy="40%" r="55%">
<stop offset="0" stop-color="#ffeef0"/><stop offset="1" stop-color="#ffeef0" stop-opacity="0"/>
</radialGradient></defs>
<rect x="58" y="34" width="140" height="120" fill="url(#tenantlandingpage_rose)"/>
<circle cx="210" cy="50" r="4" fill="#e11d48"/><circle cx="222" cy="42" r="2.5" fill="#fda4b4"/>
<circle cx="44" cy="176" r="5" fill="none" stroke="#e2e6ec" stroke-width="2"/>
<circle cx="214" cy="192" r="9" fill="none" stroke="#e2e6ec" stroke-width="2"/>
<g filter="url(#tenantlandingpage_sf)"><rect x="44" y="64" width="150" height="104" rx="14" fill="#ffffff" stroke="#e2e6ec"/></g>
<path d="M44 78c0-7.7 6.3-14 14-14h122c7.7 0 14 6.3 14 14v4H44v-4z" fill="#f6f8fa"/>
<circle cx="58" cy="73" r="2.5" fill="#aeb6c2"/><circle cx="68" cy="73" r="2.5" fill="#eef1f5"/><circle cx="78" cy="73" r="2.5" fill="#eef1f5"/>
<rect x="60" y="98" width="60" height="6" rx="3" fill="#f0f2f6"/><rect x="60" y="110" width="80" height="6" rx="3" fill="#eef1f5"/><rect x="60" y="122" width="44" height="6" rx="3" fill="#eef1f5"/>
<g filter="url(#tenantlandingpage_sf)"><rect x="138" y="118" width="68" height="64" rx="14" fill="#ffffff" stroke="#e2e6ec"/></g>
<circle cx="172" cy="142" r="13" fill="#ffeef0"/><rect x="166" y="140" width="12" height="10" rx="2" fill="#e11d48"/><path d="M168 140v-3a4 4 0 0 1 8 0v3" stroke="#e11d48" stroke-width="2" fill="none"/>
<rect x="152" y="164" width="40" height="5" rx="2.5" fill="#f0f2f6"/>
</svg>
