<svg width="257" height="256" viewBox="0 0 257 256" fill="none" xmlns="http://www.w3.org/2000/svg">
<defs>
<filter id="usersemptydark_sf" x="-30%" y="-30%" width="160%" height="160%">
<feDropShadow dx="0" dy="2" stdDeviation="3" flood-color="#000000" flood-opacity="0.45"/>
<feDropShadow dx="0" dy="12" stdDeviation="9" flood-color="#000000" flood-opacity="0.6"/>
</filter>
<linearGradient id="usersemptydark_glass" x1="0" y1="0" x2="0" y2="1">
<stop offset="0" stop-color="#ffffff" stop-opacity="0.05"/>
<stop offset="0.42" stop-color="#ffffff" stop-opacity="0"/>
</linearGradient>
<linearGradient id="usersemptydark_surf" x1="0" y1="0" x2="0" y2="1">
<stop offset="0" stop-color="#181b22"/><stop offset="1" stop-color="#14171d"/>
</linearGradient>
<radialGradient id="usersemptydark_rose" cx="50%" cy="42%" r="55%">
<stop offset="0" stop-color="#341219"/><stop offset="1" stop-color="#341219" stop-opacity="0"/>
</radialGradient>
</defs>
<rect x="58" y="36" width="140" height="120" fill="url(#usersemptydark_rose)"/>
<circle cx="214" cy="52" r="4" fill="#ff5d7d"/>
<circle cx="226" cy="44" r="2.5" fill="#7a2436"/>
<g filter="url(#usersemptydark_sf)"><rect x="44" y="74" width="120" height="92" rx="16" fill="url(#usersemptydark_surf)" stroke="#2a2e37"/></g>
<rect x="44" y="74" width="120" height="46" rx="16" fill="url(#usersemptydark_glass)"/>
<rect x="58" y="96" width="70" height="6" rx="3" fill="#23262e"/>
<rect x="58" y="110" width="92" height="6" rx="3" fill="#23262e"/>
<rect x="58" y="124" width="54" height="6" rx="3" fill="#23262e"/>
<rect x="58" y="138" width="80" height="6" rx="3" fill="#23262e"/>
<g filter="url(#usersemptydark_sf)"><rect x="80" y="92" width="133" height="100" rx="18" fill="#181b22" stroke="#2a2e37"/></g>
<rect x="80" y="92" width="133" height="50" rx="18" fill="url(#usersemptydark_glass)"/>
<rect x="94" y="106" width="26" height="26" rx="8" fill="#341219"/>
<circle cx="107" cy="115" r="3.5" fill="#ff5d7d"/><path d="M100 126c0-3.9 3.1-6 7-6s7 2.1 7 6" stroke="#ff5d7d" stroke-width="2" fill="none" stroke-linecap="round"/>
<rect x="128" y="110" width="52" height="6" rx="3" fill="#f3f5f8" fill-opacity="0.82"/>
<rect x="128" y="121" width="34" height="5" rx="2.5" fill="#5b626e"/>
<rect x="94" y="146" width="105" height="1" rx="0.5" fill="#23262e"/>
<circle cx="101" cy="160" r="6" fill="#341219"/>
<rect x="113" y="156" width="60" height="5" rx="2.5" fill="#22252d"/>
<rect x="113" y="164" width="38" height="4" rx="2" fill="#23262e"/>
<circle cx="101" cy="176" r="6" fill="#22252d"/>
<rect x="113" y="172" width="60" height="5" rx="2.5" fill="#22252d"/>
<rect x="113" y="180" width="38" height="4" rx="2" fill="#23262e"/>
<rect x="78" y="214" width="80" height="6" rx="3" fill="#23262e"/>
<rect x="166" y="214" width="20" height="6" rx="3" fill="#23262e"/>
<circle cx="214" cy="190" r="9" fill="none" stroke="#2a2e37" stroke-width="2"/>
<circle cx="40" cy="170" r="5" fill="none" stroke="#2a2e37" stroke-width="2"/>
</svg>
