<svg width="24" height="24" viewBox="0 0 24 24" fill="currentColor" xmlns="http://www.w3.org/2000/svg"><path d="M21 6.375c0 2.692-4.03 4.875-9 4.875S3 9.067 3 6.375 7.03 1.5 12 1.5s9 2.183 9 4.875Z"/><path d="M12 12.75c2.685 0 5.19-.586 7.078-1.609a8.283 8.283 0 0 0 1.897-1.384c.016.121.025.244.025.368C21 12.797 16.97 14.98 12 14.98s-9-2.183-9-4.875c0-.124.009-.247.025-.368a8.285 8.285 0 0 0 1.897 1.384C6.809 12.164 9.315 12.75 12 12.75Z"/><path d="M12 16.48c2.685 0 5.19-.586 7.078-1.609a8.282 8.282 0 0 0 1.897-1.384c.016.121.025.244.025.368 0 2.692-4.03 4.875-9 4.875s-9-2.183-9-4.875c0-.124.009-.247.025-.368a8.284 8.284 0 0 0 1.897 1.384C6.809 15.894 9.315 16.48 12 16.48Z"/><path d="M12 20.21c2.685 0 5.19-.585 7.078-1.608a8.283 8.283 0 0 0 1.897-1.384c.016.121.025.244.025.368 0 2.692-4.03 4.875-9 4.875s-9-2.183-9-4.875c0-.124.009-.247.025-.368a8.285 8.285 0 0 0 1.897 1.384C6.809 19.625 9.315 20.21 12 20.21Z"/></svg>