<svg width="24" height="24" viewBox="0 0 24 24" fill="currentColor" xmlns="http://www.w3.org/2000/svg"><path fill-rule="evenodd" d="M2.25 12c0-5.385 4.365-9.75 9.75-9.75s9.75 4.365 9.75 9.75-4.365 9.75-9.75 9.75S2.25 17.385 2.25 12Zm4.533-.74a.75.75 0 0 1 .53.918l-.255.96c.19.123.388.232.594.323l.366-.366a.75.75 0 0 1 1.06 1.06l-.34.34a4.49 4.49 0 0 0 1.18.318V14.5a.75.75 0 0 1 1.5 0v.633a4.49 4.49 0 0 0 1.18-.317l-.34-.34a.75.75 0 1 1 1.06-1.06l.366.365c.206-.09.404-.2.594-.322l-.255-.96a.75.75 0 0 1 1.449-.386l.198.745a6.07 6.07 0 0 0 .344-.498A8.247 8.247 0 0 1 12 20.25a8.247 8.247 0 0 1-7.682-5.222.75.75 0 0 1 1.4-.54l.026.066c.13-.205.276-.4.434-.582l-.198-.745a.75.75 0 0 1 .53-.918l.043-.011a8.29 8.29 0 0 1 .21-.957Z" clip-rule="evenodd"/></svg>