<svg xmlns="http://www.w3.org/2000/svg" viewBox="0 24 707 152" fill="none" shape-rendering="geometricPrecision">
  <title>Hypedrive Creator</title>
  <defs>
    <linearGradient id="hds1" x1="24" y1="16" x2="78" y2="96" gradientUnits="userSpaceOnUse">
      <stop offset="0" stop-color="#fb7185" />
      <stop offset="1" stop-color="#e11d48" />
    </linearGradient>
  </defs>
  <path fill="#18181b" d="M391.99 40.78c6.26-.23 13.85.22 20.51.12l-.05 72.81c.02 9.77-.46 22.44.05 31.87-5.56-.32-14.28.07-20.07.16-.28-2.47-.3-5.14-.38-7.64-11.2 9.9-22.33 11.85-36.3 6.12a31 31 0 0 1-8.1-5.4c-15.78-14.4-17.08-43.35-2.56-59a32.2 32.2 0 0 1 22.8-10.41c10.22-.38 16.92 2.81 24.29 9.62.6-9.1.09-28.76-.2-38.25m-14.34 88.85c5.7-1.3 9.4-3.55 12.67-8.69a23.8 23.8 0 0 0 2.95-18.14c-2.59-10.78-10.75-15.65-21.4-15.02-27.3 9.84-16.87 43.15 5.78 41.85M211.17 70.84c35.33-5.25 53.27 37.71 33.05 63.67a35.5 35.5 0 0 1-23.84 13.5c-11.04 1.34-17.4-1.83-25.85-8.39l.01 13.33c.04 7.22-.1 14.63-.17 21.86-6.44.58-14.12-.51-19.76.45-.12-4.87-.1-9.85-.07-14.73.16-29.58-.35-59.25.02-88.82 7.1.32 13.4.33 20.52.26-.42 2.37-.73 4.95-1.06 7.35 6.96-5.4 8.47-6.87 17.15-8.48m5.82 59.17c25.77-10.23 15.72-44.95-8.56-41.34a20 20 0 0 0-12.23 10.15 23.8 23.8 0 0 0-1.35 18.47c3.44 10.35 11.66 14.62 22.14 12.72M61.82 41.72c7.37-.1 13.71.32 21.37-.01-.34 9.73 1.06 102.7-.9 104.78l-2.33.05c-5.9-.2-12.27-.32-18.14.03q.24-21.37.01-42.76-19.67-.23-39.35-.14c-1.03 7.2.24 18.09.2 25.77-.04 4.07-.61 13.47-.1 16.79q-11.28.43-22.58.15c.25-4.52.23-9.78.15-14.34C-.42 102.08.9 71.62.12 41.7c7.23.25 14.7.57 21.9.06-.13 13.76.68 27.74.56 42.02 13.3.06 26.01-.19 39.4.2q.08-21.14-.16-42.27M293.23 70.4c5.84-.59 13.96.8 19.15 3.5 17.55 9.13 19.32 24.79 18.5 42.15-17.48.53-35.82-.3-53.52.05 1.48 5.71 3.16 10.22 8.54 13.58a18 18 0 0 0 13.59 2.13c5.94-1.48 8.63-5.08 11.63-9.84 4.73 1.13 9.27 1.96 14.04 2.87 1.7.3 3.2.47 4.8 1.14-.06 2.1-3.73 7.41-5.15 9.24-12.33 15.89-38.59 17.58-53.75 4.72a39.2 39.2 0 0 1-13.71-26.96c-1.82-22.75 12.9-40.9 35.88-42.58m-15.61 30.34 17.16-.02 16.73-.09c-3.1-8.68-6.51-12.99-16.31-13.72-9.55 1.15-13.96 4.86-17.58 13.83M611.9 69.44c17.26-2.04 34.37 13.53 35.92 30.22.45 4.9.2 10.58.13 15.52l-53.09-.37c1.27 4.55 2.12 7.5 5.56 11.13a17 17 0 0 0 11.9 5.39c6.57.16 11.13-3.09 15.7-7.24 4.03 1.75 8.38 3.93 12.37 5.82l5.57 2.52c-8.8 9.7-13.68 12.81-27.38 14.48-38.07 4.61-57.16-38.2-34.04-66.07 6.6-7.95 16.74-10.97 27.35-11.4M595.8 99.82l19.6-.1h13.9c-4.36-9.92-8.23-14.63-19.93-13.47-8.16 2.36-10.6 5.58-13.57 13.57M88.48 71.78c7.67.3 14.74.23 22.43.12a1210 1210 0 0 1 18.82 47.73c5.39-14.68 11.94-33.8 18.22-47.8q10.55.06 21.08.3c-5.92 16.09-13.03 32.4-19.48 48.4-2.47 5.24-5.4 13.13-7.65 18.66l-14.52 35.73c-6.84-.12-14.36.15-21.26.24l12.1-30.27c-9.1-23.86-21.42-49.73-29.74-73.11M557.01 70.86c7 .3 14.46.12 21.51.06-2.82 8.6-7.7 21.04-11.17 29.43q-8.85 22.56-17.39 45.24c-6.7-.21-14.21.01-21.14-.12a4140 4140 0 0 1-17.8-46.69c-3.44-9.02-7.58-18.72-10.52-27.82 5.92.19 12.15.04 18.1-.01.99-.03 1.97-.13 2.91.23 1.88.73 16.47 43.61 18.67 49.46a3252 3252 0 0 0 16.83-49.78M457.43 69.8c4.75-.3 7.44 0 12.05.83.13 6.36-.03 13.14-.07 19.53a46 46 0 0 0-7.21-.54c-14.5-.05-19.51 11.96-19.35 24.56.14 10.42.19 20.9.21 31.33-3.96-.29-10.32-.07-14.46-.05-2.1.13-3.32.39-5.27-.24-1.55-2.97-.81-65.97-.8-74.28 6.5-.16 13.85 0 20.45-.06l.09 8.62c4.31-5.75 7.35-8.2 14.36-9.7M475.62 70.64q10.22.11 20.45.07c-.04 7.54.23 73.59-.16 74.5q-10.16.06-20.3.5c.53-7.47.33-16.24.33-23.84z" />
  <circle cx="486.2" cy="50.34" r="11.82" fill="#18181b" />
  <g transform="translate(629 16)">
    <path d="M24 16H46L78 56L46 96H24L44 56L24 16Z" fill="url(#hds1)" />
  </g>
</svg>
